<svg
    width="200px"
    height="200px"
    viewBox="0 0 24 24"
    fill="none"
    xmlns="http://www.w3.org/2000/svg"
    stroke="#4493f8"
    stroke-width="2"
    stroke-linecap="round"
    stroke-linejoin="round"
>
    <!-- CSV File Shape -->
    <path d="M4 2h12l4 4v14a2 2 0 0 1 -2 2H4a2 2 0 0 1 -2 -2V4a2 2 0 0 1 2 -2z"></path>
    <polyline points="14 2 14 6 18 6"></polyline>

    <!-- CSV Rows -->
    <line x1="8" y1="10" x2="16" y2="10"></line>
    <line x1="8" y1="14" x2="16" y2="14"></line>
    <line x1="8" y1="18" x2="12" y2="18"></line>

    <!-- Larger Lightning Bolt (⚡) - Moved Slightly Up -->
    <path d="M16 12 L19 12 L15 18 L18 18 L12 22 L14 16 L11 16 Z"
        fill="orange" stroke="orange" stroke-width="1.5"></path>
</svg>
